<svg width="189" height="192" viewBox="0 0 189 192" fill="none" xmlns="http://www.w3.org/2000/svg">
<g clip-path="url(#clip0_1434_339)">
<rect x="26.2461" y="51.9019" width="33.4569" height="6.47553" rx="1.79876" fill="#F7F7F9"/>
<rect x="26.2474" y="60.1759" width="87.7795" height="11.8718" rx="1.79876" fill="#F7F7F9"/>
<rect x="26.2474" y="75.6453" width="32.7374" height="8.27429" rx="1.79876" fill="#F7F7F9"/>
<rect x="26.2474" y="95.7915" width="61.5176" height="6.11578" rx="1.79876" fill="#F7F7F9"/>
<rect x="132.372" y="139.322" width="31.2984" height="4.67677" rx="1.79876" fill="#F7F7F9"/>
<rect x="40.6326" y="149.395" width="18.3473" height="4.31702" rx="1.79876" fill="#F7F7F9"/>
<rect x="144.246" y="149.395" width="19.0669" height="4.31702" rx="1.79876" fill="#F7F7F9"/>
<rect x="40.6326" y="139.322" width="41.0117" height="5.75603" rx="1.79876" fill="#F7F7F9"/>
<rect x="26.2444" y="141.121" width="10.7926" height="10.7926" rx="1.79876" fill="#F7F7F9"/>
<rect x="26.2427" y="160.907" width="137.425" height="0.359752" rx="0.179876" fill="#F7F7F9"/>
<rect x="26.2422" y="131.767" width="137.425" height="0.359752" rx="0.179876" fill="#F7F7F9"/>
<rect x="132.374" y="110.182" width="31.2984" height="4.67677" rx="1.79876" fill="#F7F7F9"/>
<rect x="40.6342" y="120.255" width="13.6706" height="4.31702" rx="1.79876" fill="#F7F7F9"/>
<rect x="144.247" y="120.255" width="19.0669" height="4.31702" rx="1.79876" fill="#F7F7F9"/>
<rect x="40.6342" y="110.182" width="18.3473" height="5.75603" rx="1.79876" fill="#F7F7F9"/>
<rect x="26.2461" y="111.981" width="10.7926" height="10.7926" rx="1.79876" fill="#F7F7F9"/>
<rect x="132.374" y="168.462" width="31.2984" height="4.67677" rx="1.79876" fill="#F7F7F9"/>
<rect x="40.6343" y="178.535" width="33.0972" height="4.31702" rx="1.79876" fill="#F7F7F9"/>
<rect x="144.247" y="178.535" width="19.0669" height="4.31702" rx="1.79876" fill="#F7F7F9"/>
<rect x="40.6343" y="168.462" width="18.3473" height="5.75603" rx="1.79876" fill="#F7F7F9"/>
<rect x="26.2462" y="170.261" width="10.7926" height="10.7926" rx="1.79876" fill="#F7F7F9"/>
<mask id="path-22-inside-1_1434_339" fill="white">
<path d="M28.5397 5.85364H160.985V21.9519H28.5397V5.85364Z"/>
</mask>
<path d="M160.985 21.5922H28.5397V22.3117H160.985V21.5922Z" fill="#EAECF0" mask="url(#path-22-inside-1_1434_339)"/>
<g opacity="0.5">
<rect opacity="0.35" x="146.81" y="12.2692" width="7.55479" height="3.71744" rx="0.779462" stroke="#263959" stroke-width="0.359752"/>
<path opacity="0.4" d="M154.904 13.4084V14.8475C155.194 14.7256 155.382 14.4421 155.382 14.128C155.382 13.8138 155.194 13.5303 154.904 13.4084Z" fill="#263959"/>
<rect x="147.349" y="12.8088" width="6.47553" height="2.63818" rx="0.479669" fill="#263959"/>
</g>
<path opacity="0.5" fill-rule="evenodd" clip-rule="evenodd" d="M142.073 12.9102C142.873 12.9103 143.643 13.2175 144.223 13.7685C144.266 13.8111 144.336 13.8105 144.379 13.7673L144.797 13.3463C144.819 13.3244 144.831 13.2947 144.831 13.2638C144.83 13.2329 144.818 13.2034 144.796 13.1817C143.273 11.7239 140.872 11.7239 139.349 13.1817C139.327 13.2034 139.315 13.2329 139.314 13.2638C139.314 13.2947 139.326 13.3244 139.348 13.3463L139.766 13.7673C139.809 13.8106 139.879 13.8111 139.922 13.7685C140.502 13.2175 141.272 12.9102 142.073 12.9102ZM142.073 14.28C142.513 14.28 142.937 14.4433 143.263 14.7382C143.307 14.78 143.377 14.7791 143.42 14.7361L143.837 14.3151C143.859 14.293 143.871 14.2631 143.87 14.2319C143.87 14.2008 143.857 14.1711 143.835 14.1495C142.842 13.2269 141.305 13.2269 140.313 14.1495C140.29 14.1711 140.277 14.2008 140.277 14.232C140.277 14.2631 140.289 14.2931 140.311 14.3151L140.728 14.7361C140.771 14.7791 140.84 14.78 140.884 14.7382C141.21 14.4435 141.634 14.2802 142.073 14.28ZM142.908 15.2016C142.908 15.2329 142.896 15.2629 142.874 15.2848L142.152 16.0122C142.131 16.0336 142.102 16.0456 142.072 16.0456C142.042 16.0456 142.013 16.0336 141.992 16.0122L141.271 15.2848C141.248 15.2629 141.236 15.2328 141.237 15.2016C141.238 15.1704 141.251 15.1408 141.274 15.1199C141.735 14.7305 142.41 14.7305 142.87 15.1199C142.894 15.1408 142.907 15.1704 142.908 15.2016Z" fill="#263959"/>
<path opacity="0.5" fill-rule="evenodd" clip-rule="evenodd" d="M137.155 12.2092H136.796C136.597 12.2092 136.436 12.3703 136.436 12.569V15.6868C136.436 15.8855 136.597 16.0466 136.796 16.0466H137.155C137.354 16.0466 137.515 15.8855 137.515 15.6868V12.569C137.515 12.3703 137.354 12.2092 137.155 12.2092ZM135.116 13.0487H135.476C135.675 13.0487 135.836 13.2097 135.836 13.4084V15.6868C135.836 15.8855 135.675 16.0466 135.476 16.0466H135.116C134.918 16.0466 134.756 15.8855 134.756 15.6868V13.4084C134.756 13.2097 134.918 13.0487 135.116 13.0487ZM133.798 13.8881H133.438C133.24 13.8881 133.079 14.0491 133.079 14.2478V15.6868C133.079 15.8855 133.24 16.0466 133.438 16.0466H133.798C133.997 16.0466 134.158 15.8855 134.158 15.6868V14.2478C134.158 14.0491 133.997 13.8881 133.798 13.8881ZM132.119 14.6076H131.759C131.56 14.6076 131.399 14.7686 131.399 14.9673V15.6868C131.399 15.8855 131.56 16.0466 131.759 16.0466H132.119C132.317 16.0466 132.478 15.8855 132.478 15.6868V14.9673C132.478 14.7686 132.317 14.6076 132.119 14.6076Z" fill="#263959"/>
<g opacity="0.5">
<path d="M38.6369 16.3345C38.2061 16.3345 37.8251 16.1694 37.4939 15.8392C37.1651 15.5068 37.0006 15.1156 37.0006 14.6655C37.0006 14.211 37.1732 13.8198 37.5183 13.4919C37.8657 13.164 38.286 13 38.7794 13C39.2727 13 39.6919 13.1651 40.037 13.4953C40.3844 13.8232 40.5581 14.2133 40.5581 14.6655C40.5581 14.851 40.5246 15.0364 40.4574 15.2218C40.3925 15.4073 40.3265 15.5464 40.2594 15.6391L40.1656 15.7782L38.7446 17.9322H37.9595L39.0643 16.2632C38.9461 16.3107 38.8037 16.3345 38.6369 16.3345ZM38.022 13.9566C37.8159 14.1533 37.7128 14.3908 37.7128 14.6689C37.7128 14.9448 37.8159 15.1811 38.022 15.3779C38.2281 15.5746 38.4806 15.673 38.7794 15.673C39.0782 15.673 39.3306 15.5746 39.5367 15.3779C39.7429 15.1811 39.8459 14.9448 39.8459 14.6689C39.8459 14.3908 39.7429 14.1533 39.5367 13.9566C39.3306 13.7576 39.0782 13.6581 38.7794 13.6581C38.4806 13.6581 38.2281 13.7576 38.022 13.9566Z" fill="#263959"/>
<path d="M41.1247 17.8677C41.0321 17.7773 40.9857 17.6721 40.9857 17.5522C40.9857 17.4301 41.0321 17.3238 41.1247 17.2334C41.2174 17.1429 41.325 17.0977 41.4478 17.0977C41.5729 17.0977 41.6817 17.1429 41.7744 17.2334C41.867 17.3238 41.9133 17.4301 41.9133 17.5522C41.9133 17.6721 41.867 17.7773 41.7744 17.8677C41.6817 17.9559 41.5729 18 41.4478 18C41.325 18 41.2174 17.9559 41.1247 17.8677ZM41.1247 15.2965C41.0321 15.206 40.9857 15.1009 40.9857 14.981C40.9857 14.8589 41.0321 14.7526 41.1247 14.6621C41.2174 14.5717 41.325 14.5265 41.4478 14.5265C41.5729 14.5265 41.6817 14.5717 41.7744 14.6621C41.867 14.7526 41.9133 14.8589 41.9133 14.981C41.9133 15.1009 41.867 15.206 41.7744 15.2965C41.6817 15.3869 41.5729 15.4322 41.4478 15.4322C41.325 15.4322 41.2174 15.3869 41.1247 15.2965Z" fill="#263959"/>
<path d="M45.4746 16.2632H46.1139V16.9586H45.4746V17.9322H44.6895V16.9586H42.2715V16.1275L44.4775 13.0678H45.4746V16.2632ZM44.6895 16.2632V13.9362L43.0184 16.2632H44.6895Z" fill="#263959"/>
<path d="M47.3961 13.0678H48.0006V17.9322H47.2189V14.2517H46.3295V13.7293C46.6283 13.6976 46.8553 13.6287 47.0105 13.5224C47.168 13.4138 47.2965 13.2623 47.3961 13.0678Z" fill="#263959"/>
</g>
<path d="M31.3824 34.972C31.919 35.5301 31.919 36.4124 31.3824 36.9705C30.8152 37.5604 29.8712 37.5604 29.304 36.9705C28.7674 36.4124 28.7674 35.5301 29.304 34.972C29.8712 34.3821 30.8152 34.3821 31.3824 34.972Z" fill="white"/>
<path d="M29.3828 32.5454C29.9194 33.1035 29.9194 33.9857 29.3828 34.5438C28.8156 35.1337 27.8717 35.1337 27.3044 34.5438C26.7678 33.9857 26.7678 33.1035 27.3044 32.5454C27.8717 31.9555 28.8156 31.9555 29.3828 32.5454Z" fill="white"/>
<path d="M33.3819 32.5454C33.9185 33.1035 33.9185 33.9857 33.3819 34.5438C32.8147 35.1337 31.8707 35.1337 31.3035 34.5438C30.7669 33.9857 30.7669 33.1035 31.3035 32.5454C31.8707 31.9555 32.8147 31.9555 33.3819 32.5454Z" fill="white"/>
<path d="M40.2094 37.1246H39.3027L37.3427 32.4313H38.4027L39.7627 35.7913L41.1294 32.4313H42.1694L40.2094 37.1246Z" fill="#263959"/>
<path d="M43.6889 37.0979H42.7489V33.7713H43.6889V37.0979ZM42.6556 32.8913C42.6556 32.5713 42.9022 32.3246 43.2156 32.3246C43.5289 32.3246 43.7756 32.5713 43.7756 32.8913C43.7756 33.2046 43.5289 33.4513 43.2156 33.4513C42.9022 33.4513 42.6556 33.2046 42.6556 32.8913Z" fill="#263959"/>
<path d="M45.5954 37.0979H44.6554V33.7713H45.5954V34.3313C45.6954 34.1579 45.8487 34.0046 46.062 33.8779C46.2754 33.7513 46.5087 33.6846 46.7554 33.6846C46.802 33.6846 46.8354 33.6846 46.862 33.6913V34.6113C46.782 34.5913 46.682 34.5779 46.5687 34.5779C46.1154 34.5779 45.7287 34.8579 45.5954 35.1579V37.0979Z" fill="#263959"/>
<path d="M47.9895 36.0646V34.5579H47.3362V33.7713H47.9895V32.8579H48.9295V33.7713H49.8762V34.5579H48.9295V35.8779C48.9295 36.2046 49.0629 36.3446 49.3829 36.3446C49.5495 36.3446 49.7095 36.3046 49.8695 36.2246V37.0046C49.6762 37.1246 49.4162 37.1846 49.0762 37.1846C48.3495 37.1846 47.9895 36.8113 47.9895 36.0646Z" fill="#263959"/>
<path d="M52.8856 35.8913V33.7713H53.8256V37.0979H52.8856V36.6979C52.5856 37.0246 52.2189 37.1846 51.7722 37.1846C50.9989 37.1846 50.5589 36.6646 50.5589 35.8113V33.7713H51.4989V35.6179C51.4989 36.1313 51.7856 36.3246 52.1322 36.3246C52.4256 36.3246 52.7256 36.1379 52.8856 35.8913Z" fill="#263959"/>
<path d="M57.9132 36.3713C57.9932 36.3713 58.0598 36.3579 58.1065 36.3313V37.0179C57.9865 37.1113 57.8198 37.1579 57.5998 37.1579C57.2198 37.1579 56.9732 37.0179 56.8465 36.7313C56.5532 37.0313 56.1732 37.1846 55.6998 37.1846C54.9798 37.1846 54.4732 36.7446 54.4732 36.0713C54.4732 35.7179 54.5998 35.4446 54.8598 35.2579C55.1198 35.0713 55.4265 34.9779 55.7865 34.9779C56.1598 34.9779 56.4798 35.0446 56.7465 35.1846V35.0846C56.7465 34.6646 56.4532 34.4579 55.8665 34.4579C55.5132 34.4579 55.1732 34.5513 54.8598 34.7379V33.9513C55.1998 33.7713 55.6065 33.6846 56.0932 33.6846C56.5665 33.6846 56.9532 33.7979 57.2398 34.0313C57.5332 34.2646 57.6798 34.5846 57.6798 34.9913V36.1179C57.6798 36.2846 57.7598 36.3713 57.9132 36.3713ZM56.7465 36.1179V35.7846C56.5532 35.6579 56.3265 35.5913 56.0532 35.5913C55.6532 35.5913 55.3998 35.7513 55.3998 36.0246C55.3998 36.3179 55.6465 36.4579 55.9932 36.4579C56.3198 36.4579 56.5732 36.3446 56.7465 36.1179Z" fill="#263959"/>
<path d="M59.6436 37.1846C59.1303 37.1846 58.7569 36.9313 58.7569 36.2646V32.4313H59.6969V36.0179C59.6969 36.2379 59.7969 36.3513 59.9969 36.3513C60.0903 36.3513 60.1703 36.3313 60.2369 36.2913V37.0646C60.0769 37.1446 59.8769 37.1846 59.6436 37.1846Z" fill="#263959"/>
<path d="M64.1851 37.1913C63.4851 37.1913 62.8917 37.0246 62.4117 36.6913V35.6913C62.6051 35.8579 62.8584 36.0046 63.1851 36.1313C63.5117 36.2513 63.8317 36.3113 64.1451 36.3113C64.6517 36.3113 65.0451 36.1246 65.0451 35.7713C65.0451 35.6046 64.9651 35.4579 64.8051 35.3846C64.7184 35.3313 64.6717 35.3113 64.5384 35.2646L64.3784 35.2113L64.0051 35.0979L63.6584 34.9846C63.5917 34.9646 63.4851 34.9246 63.3451 34.8713C63.2051 34.8179 63.1051 34.7713 63.0451 34.7313C62.9184 34.6446 62.6917 34.4846 62.6051 34.3246C62.5251 34.1646 62.4451 33.9379 62.4451 33.6713C62.4451 33.2579 62.6051 32.9313 62.9184 32.6979C63.2317 32.4579 63.6651 32.3379 64.2051 32.3379C64.7451 32.3379 65.2584 32.4646 65.7317 32.7246V33.6579C65.2584 33.3646 64.7517 33.2179 64.2184 33.2179C63.6917 33.2179 63.4251 33.3713 63.4251 33.6779C63.4251 33.8313 63.5184 33.9246 63.6717 33.9979C63.7584 34.0446 63.9251 34.1046 64.0517 34.1379C64.1784 34.1713 64.4184 34.2379 64.5584 34.2846C65.0051 34.4246 65.2584 34.5513 65.5717 34.7713C65.8851 34.9913 66.0384 35.3179 66.0384 35.7446C66.0384 36.1913 65.8651 36.5446 65.5117 36.8046C65.1584 37.0646 64.7184 37.1913 64.1851 37.1913Z" fill="#263959"/>
<path d="M67.013 36.0646V34.5579H66.3596V33.7713H67.013V32.8579H67.953V33.7713H68.8996V34.5579H67.953V35.8779C67.953 36.2046 68.0863 36.3446 68.4063 36.3446C68.573 36.3446 68.733 36.3046 68.893 36.2246V37.0046C68.6996 37.1246 68.4396 37.1846 68.0996 37.1846C67.373 37.1846 67.013 36.8113 67.013 36.0646Z" fill="#263959"/>
<path d="M71.909 35.8913V33.7713H72.849V37.0979H71.909V36.6979C71.609 37.0246 71.2423 37.1846 70.7957 37.1846C70.0223 37.1846 69.5823 36.6646 69.5823 35.8113V33.7713H70.5224V35.6179C70.5224 36.1313 70.809 36.3246 71.1557 36.3246C71.449 36.3246 71.749 36.1379 71.909 35.8913Z" fill="#263959"/>
<path d="M75.1166 37.1846C74.6633 37.1846 74.29 37.0179 73.99 36.6846C73.6966 36.3446 73.55 35.9313 73.55 35.4313C73.55 34.9379 73.6966 34.5246 73.99 34.1913C74.29 33.8513 74.6633 33.6846 75.1166 33.6846C75.59 33.6846 75.95 33.8513 76.21 34.1779V32.4313H77.15V37.0979H76.21V36.6913C75.9633 37.0179 75.5966 37.1846 75.1166 37.1846ZM75.3833 36.3646C75.75 36.3646 76.0566 36.1513 76.21 35.8646V34.9979C76.0566 34.7113 75.75 34.5046 75.3833 34.5046C75.1233 34.5046 74.9033 34.5913 74.7366 34.7713C74.57 34.9513 74.4833 35.1713 74.4833 35.4313C74.4833 35.6979 74.57 35.9179 74.7366 36.0979C74.9033 36.2779 75.1233 36.3646 75.3833 36.3646Z" fill="#263959"/>
<path d="M79.0535 37.0979H78.1135V33.7713H79.0535V37.0979ZM78.0202 32.8913C78.0202 32.5713 78.2668 32.3246 78.5802 32.3246C78.8935 32.3246 79.1402 32.5713 79.1402 32.8913C79.1402 33.2046 78.8935 33.4513 78.5802 33.4513C78.2668 33.4513 78.0202 33.2046 78.0202 32.8913Z" fill="#263959"/>
<path d="M80.9866 36.0979C81.16 36.2779 81.38 36.3646 81.6466 36.3646C81.9133 36.3646 82.1333 36.2779 82.3066 36.0979C82.48 35.9179 82.5666 35.6979 82.5666 35.4313C82.5666 35.1646 82.48 34.9446 82.3066 34.7713C82.1333 34.5913 81.9133 34.5046 81.6466 34.5046C81.38 34.5046 81.16 34.5913 80.9866 34.7713C80.8133 34.9446 80.7266 35.1646 80.7266 35.4313C80.7266 35.6979 80.8133 35.9179 80.9866 36.0979ZM79.8 35.4313C79.8 34.9379 79.9733 34.5246 80.32 34.1913C80.6666 33.8513 81.1066 33.6846 81.6466 33.6846C82.1866 33.6846 82.6266 33.8513 82.9733 34.1913C83.32 34.5313 83.4933 34.9446 83.4933 35.4313C83.4933 35.9313 83.32 36.3446 82.9733 36.6846C82.6266 37.0179 82.1866 37.1846 81.6466 37.1846C81.1066 37.1846 80.6666 37.0179 80.32 36.6846C79.9733 36.3446 79.8 35.9313 79.8 35.4313Z" fill="#263959"/>
<rect x="20.4899" y="20.4884" width="149.275" height="4.39044" fill="white"/>
<rect x="75.7391" y="8.41506" width="38.0505" height="11.7078" rx="5.85392" fill="#F3F3F4" stroke="white" stroke-width="0.73174"/>
<rect x="26.2422" y="161" width="137.425" height="0.359752" rx="0.179876" fill="#F7F7F9"/>
<rect x="132.372" y="168.555" width="31.2984" height="4.67677" rx="1.79876" fill="#F7F7F9"/>
<rect x="40.632" y="178.628" width="18.3473" height="4.31702" rx="1.79876" fill="#F7F7F9"/>
<rect x="144.245" y="178.628" width="19.0669" height="4.31702" rx="1.79876" fill="#F7F7F9"/>
<rect x="40.632" y="168.555" width="41.0117" height="5.75603" rx="1.79876" fill="#F7F7F9"/>
<rect x="26.2439" y="170.354" width="10.7926" height="10.7926" rx="1.79876" fill="#F7F7F9"/>
<rect x="26.2422" y="190.14" width="137.425" height="0.359752" rx="0.179876" fill="#F7F7F9"/>
<path d="M17.1952 23.4157C17.1952 11.6959 26.6959 2.19522 38.4157 2.19522H150.584C162.304 2.19522 171.805 11.6959 171.805 23.4157V202.805H17.1952V23.4157Z" stroke="#F7F7F9" stroke-width="4.39044"/>
</g>
<defs>
<clipPath id="clip0_1434_339">
<rect width="188.057" height="191.716" fill="white"/>
</clipPath>
</defs>
</svg>
