<svg width="24" height="26" viewBox="0 0 24 26" fill="none" xmlns="http://www.w3.org/2000/svg">
<path fill-rule="evenodd" clip-rule="evenodd" d="M5.31125 10.75C5.31125 8.95979 6.02241 7.2429 7.28828 5.97703C8.55415 4.71116 10.271 4 12.0613 4C13.8515 4 15.5684 4.71116 16.8342 5.97703C18.1001 7.2429 18.8113 8.95979 18.8113 10.75V11.5C18.8113 13.623 19.6113 15.557 20.9293 17.02C21.0114 17.111 21.0699 17.2207 21.0998 17.3396C21.1297 17.4584 21.13 17.5828 21.1007 17.7018C21.0714 17.8208 21.0133 17.9308 20.9317 18.0222C20.85 18.1136 20.7472 18.1835 20.6323 18.226C19.0883 18.796 17.4723 19.216 15.8013 19.469C15.8389 19.9831 15.7701 20.4995 15.5992 20.9859C15.4283 21.4722 15.1589 21.9181 14.808 22.2957C14.457 22.6733 14.0319 22.9745 13.5593 23.1804C13.0867 23.3864 12.5768 23.4927 12.0613 23.4927C11.5457 23.4927 11.0358 23.3864 10.5632 23.1804C10.0906 22.9745 9.66552 22.6733 9.31455 22.2957C8.96357 21.9181 8.69423 21.4722 8.52332 20.9859C8.35242 20.4995 8.28363 19.9831 8.32125 19.469C6.6729 19.2192 5.05424 18.8024 3.49025 18.225C3.37539 18.1826 3.27265 18.1127 3.19101 18.0215C3.10938 17.9302 3.05133 17.8203 3.02193 17.7015C2.99254 17.5826 2.99269 17.4584 3.02238 17.3396C3.05207 17.2208 3.11039 17.1111 3.19225 17.02C4.55906 15.5067 5.31433 13.5392 5.31125 11.5V10.75ZM9.81325 19.65C9.80046 19.9532 9.84913 20.2558 9.95634 20.5397C10.0635 20.8236 10.2271 21.0829 10.4371 21.3019C10.6471 21.521 10.8992 21.6953 11.1783 21.8144C11.4575 21.9335 11.7578 21.9948 12.0613 21.9948C12.3647 21.9948 12.665 21.9335 12.9442 21.8144C13.2233 21.6953 13.4754 21.521 13.6854 21.3019C13.8954 21.0829 14.059 20.8236 14.1662 20.5397C14.2734 20.2558 14.322 19.9532 14.3093 19.65C12.8136 19.7847 11.3089 19.7847 9.81325 19.65Z" fill="#8584AD"/>
<circle cx="18" cy="6" r="5" fill="#AA84CA" stroke="white" stroke-width="2"/>
</svg>
