<svg width="24" height="25" viewBox="0 0 24 25" fill="none" xmlns="http://www.w3.org/2000/svg">
<path d="M11.7 2.83105C11.7946 2.78975 11.8968 2.76843 12 2.76843C12.1032 2.76843 12.2054 2.78975 12.3 2.83105C15.9981 4.44745 19.5255 6.42894 22.83 8.74605C22.9465 8.82771 23.0373 8.94081 23.0919 9.07214C23.1465 9.20348 23.1626 9.34763 23.1384 9.48779C23.1142 9.62795 23.0506 9.75833 22.9551 9.86373C22.8596 9.96912 22.7361 10.0452 22.599 10.083C19.1684 11.0305 15.8489 12.342 12.697 13.995L12.694 13.997L12.354 14.177C12.2452 14.2352 12.1238 14.2656 12.0005 14.2656C11.8772 14.2656 11.7558 14.2352 11.647 14.177C10.2957 13.4549 8.91189 12.7952 7.5 12.2V11.976C7.5 11.845 7.567 11.728 7.672 11.665C9.18137 10.7504 10.7342 9.90937 12.325 9.14505C12.5043 9.05885 12.642 8.90496 12.7078 8.71724C12.7736 8.52952 12.7622 8.32333 12.676 8.14405C12.5898 7.96476 12.4359 7.82706 12.2482 7.76123C12.0605 7.69541 11.8543 7.70685 11.675 7.79305C10.0408 8.57834 8.44558 9.44235 6.895 10.382C6.6744 10.5159 6.48409 10.6942 6.3362 10.9056C6.18831 11.117 6.08607 11.3569 6.036 11.61C4.51721 11.0256 2.97069 10.516 1.402 10.083C1.2649 10.0452 1.14138 9.96912 1.04587 9.86373C0.950361 9.75833 0.886789 9.62795 0.862574 9.48779C0.838358 9.34763 0.854496 9.20348 0.909106 9.07214C0.963716 8.94081 1.05455 8.82771 1.171 8.74605C4.47515 6.42901 8.00229 4.44753 11.7 2.83105Z" fill="#8584AD"/>
<path d="M13.06 15.4989C15.5163 14.1867 18.0811 13.0886 20.726 12.2169C20.86 13.6309 20.946 15.0599 20.981 16.5019C20.9847 16.6528 20.9427 16.8013 20.8607 16.928C20.7786 17.0547 20.6602 17.1536 20.521 17.2119C17.6863 18.3959 14.9721 19.8499 12.416 21.5539C12.2928 21.6361 12.1481 21.6799 12 21.6799C11.852 21.6799 11.7072 21.6361 11.584 21.5539C9.02822 19.85 6.31438 18.396 3.48001 17.2119C3.34061 17.1538 3.22202 17.0549 3.13976 16.9282C3.05751 16.8015 3.01542 16.6529 3.01901 16.5019C3.05401 15.0599 3.14001 13.6319 3.27401 12.2159C4.19236 12.5186 5.10144 12.8488 6.00001 13.2059V14.4759C5.78395 14.6004 5.60232 14.7768 5.47158 14.9892C5.34083 15.2015 5.26508 15.4431 5.25118 15.692C5.23728 15.941 5.28567 16.1895 5.39198 16.4151C5.49828 16.6407 5.65914 16.8362 5.86001 16.9839C5.77001 17.3639 5.63801 17.7369 5.46301 18.0939C5.91501 18.3069 6.36401 18.5279 6.80901 18.7549C7.05991 18.2444 7.24505 17.7041 7.36001 17.1469C7.6129 17.0345 7.82974 16.8543 7.98656 16.6263C8.14338 16.3982 8.23405 16.1312 8.24854 15.8549C8.26303 15.5785 8.20078 15.3035 8.06867 15.0603C7.93656 14.8171 7.73975 14.6152 7.50001 14.4769V13.8319C8.66813 14.3426 9.81569 14.899 10.94 15.4999C11.2662 15.6741 11.6302 15.7653 12 15.7653C12.3698 15.7653 12.7338 15.6741 13.06 15.4999V15.4989Z" fill="#8584AD"/>
<path d="M4.46201 19.488C4.88201 19.069 5.21501 18.598 5.46201 18.094C5.91501 18.307 6.36401 18.528 6.80901 18.755C6.4818 19.4196 6.04731 20.0257 5.52301 20.549C5.45435 20.6227 5.37155 20.6818 5.27955 20.7228C5.18755 20.7638 5.08824 20.7858 4.98753 20.7876C4.88683 20.7894 4.7868 20.7708 4.69341 20.7331C4.60003 20.6954 4.51519 20.6393 4.44397 20.568C4.37276 20.4968 4.31661 20.412 4.27889 20.3186C4.24117 20.2252 4.22264 20.1252 4.22442 20.0245C4.2262 19.9238 4.24824 19.8245 4.28923 19.7325C4.33022 19.6405 4.38933 19.5577 4.46301 19.489L4.46201 19.488Z" fill="#8584AD"/>
</svg>
