<svg width="24" height="25" viewBox="0 0 24 25" fill="none" xmlns="http://www.w3.org/2000/svg">
<path d="M7.5 3.9477C7.5 2.90094 8.34 2.05322 9.375 2.05322H9.75C10.7446 2.05322 11.6984 2.45242 12.4017 3.16298C13.1049 3.87355 13.5 4.83729 13.5 5.84218V7.73666C13.5 8.78343 14.34 9.63114 15.375 9.63114H17.25C18.2446 9.63114 19.1984 10.0303 19.9017 10.7409C20.6049 11.4515 21 12.4152 21 13.4201V16.8302C21 17.8759 20.16 18.7247 19.125 18.7247H9.375C8.87772 18.7247 8.4008 18.5251 8.04917 18.1698C7.69754 17.8145 7.5 17.3326 7.5 16.8302V3.9477Z" fill="#8584AD"/>
<path d="M15 5.84211C15.0018 4.56755 14.5475 3.3353 13.721 2.37244C15.3943 2.81697 16.9207 3.70259 18.1441 4.93871C19.3675 6.17483 20.244 7.7171 20.684 9.40778C19.731 8.57268 18.5115 8.11372 17.25 8.11549H15.375C15.2755 8.11549 15.1802 8.07557 15.1098 8.00452C15.0395 7.93346 15 7.83708 15 7.7366V5.84211ZM4.875 6.59991H6V16.8301C6 17.7345 6.35558 18.6019 6.98851 19.2414C7.62145 19.8809 8.47989 20.2402 9.375 20.2402H16.5V21.3769C16.5 22.4226 15.66 23.2713 14.625 23.2713H4.875C4.37772 23.2713 3.90081 23.0717 3.54917 22.7165C3.19754 22.3612 3 21.8793 3 21.3769V8.49439C3 7.44762 3.84 6.59991 4.875 6.59991Z" fill="#8584AD"/>
</svg>
