<svg width="20" height="21" viewBox="0 0 20 21" fill="none" xmlns="http://www.w3.org/2000/svg">
<path fill-rule="evenodd" clip-rule="evenodd" d="M18 10.5C18 12.6217 17.1571 14.6566 15.6569 16.1569C14.1566 17.6571 12.1217 18.5 10 18.5C7.87827 18.5 5.84344 17.6571 4.34315 16.1569C2.84285 14.6566 2 12.6217 2 10.5C2 8.37827 2.84285 6.34344 4.34315 4.84315C5.84344 3.34285 7.87827 2.5 10 2.5C12.1217 2.5 14.1566 3.34285 15.6569 4.84315C17.1571 6.34344 18 8.37827 18 10.5ZM10 5.5C10.1989 5.5 10.3897 5.57902 10.5303 5.71967C10.671 5.86032 10.75 6.05109 10.75 6.25V10.75C10.75 10.9489 10.671 11.1397 10.5303 11.2803C10.3897 11.421 10.1989 11.5 10 11.5C9.80109 11.5 9.61032 11.421 9.46967 11.2803C9.32902 11.1397 9.25 10.9489 9.25 10.75V6.25C9.25 6.05109 9.32902 5.86032 9.46967 5.71967C9.61032 5.57902 9.80109 5.5 10 5.5ZM10 15.5C10.2652 15.5 10.5196 15.3946 10.7071 15.2071C10.8946 15.0196 11 14.7652 11 14.5C11 14.2348 10.8946 13.9804 10.7071 13.7929C10.5196 13.6054 10.2652 13.5 10 13.5C9.73478 13.5 9.48043 13.6054 9.29289 13.7929C9.10536 13.9804 9 14.2348 9 14.5C9 14.7652 9.10536 15.0196 9.29289 15.2071C9.48043 15.3946 9.73478 15.5 10 15.5Z" fill="#AA84CA"/>
</svg>
