<svg width="24" height="25" viewBox="0 0 24 25" fill="none" xmlns="http://www.w3.org/2000/svg">
<path fill-rule="evenodd" clip-rule="evenodd" d="M11.828 2.95129C10.912 2.95129 10.129 3.61429 9.978 4.51829L9.887 5.06729C9.86178 5.2051 9.80072 5.33384 9.70997 5.44057C9.61921 5.5473 9.50196 5.62825 9.37 5.67529C9.20842 5.73574 9.04899 5.80178 8.892 5.87329C8.76539 5.93349 8.62516 5.95926 8.48542 5.94803C8.34568 5.93679 8.21137 5.88894 8.096 5.80929L7.643 5.48529C7.28179 5.22723 6.84074 5.1057 6.39833 5.14232C5.95592 5.17894 5.54086 5.37135 5.227 5.68529L4.984 5.92829C4.67005 6.24215 4.47765 6.65721 4.44103 7.09962C4.4044 7.54203 4.52594 7.98309 4.784 8.34429L5.108 8.79729C5.18765 8.91266 5.2355 9.04697 5.24673 9.18671C5.25797 9.32645 5.23219 9.46668 5.172 9.59329C5.10048 9.75029 5.03444 9.90972 4.974 10.0713C4.92696 10.2033 4.846 10.3205 4.73927 10.4113C4.63255 10.502 4.50381 10.5631 4.366 10.5883L3.816 10.6803C3.37842 10.7534 2.98094 10.9793 2.69421 11.3179C2.40748 11.6564 2.25009 12.0856 2.25 12.5293V12.8733C2.25 13.7893 2.913 14.5723 3.817 14.7233L4.366 14.8143C4.647 14.8613 4.874 15.0643 4.974 15.3313C5.034 15.4933 5.101 15.6523 5.172 15.8093C5.23219 15.9359 5.25797 16.0761 5.24673 16.2159C5.2355 16.3556 5.18765 16.4899 5.108 16.6053L4.784 17.0583C4.52594 17.4195 4.4044 17.8606 4.44103 18.303C4.47765 18.7454 4.67005 19.1604 4.984 19.4743L5.227 19.7173C5.875 20.3653 6.897 20.4503 7.643 19.9173L8.096 19.5933C8.21137 19.5136 8.34568 19.4658 8.48542 19.4546C8.62516 19.4433 8.76539 19.4691 8.892 19.5293C9.049 19.6003 9.208 19.6663 9.37 19.7273C9.637 19.8273 9.84 20.0543 9.887 20.3353L9.979 20.8853C10.129 21.7883 10.911 22.4513 11.828 22.4513H12.172C13.088 22.4513 13.871 21.7883 14.022 20.8843L14.113 20.3353C14.1382 20.1975 14.1993 20.0687 14.29 19.962C14.3808 19.8553 14.498 19.7743 14.63 19.7273C14.7916 19.6668 14.951 19.6008 15.108 19.5293C15.2346 19.4691 15.3748 19.4433 15.5146 19.4546C15.6543 19.4658 15.7886 19.5136 15.904 19.5933L16.357 19.9173C16.7182 20.1754 17.1593 20.2969 17.6017 20.2603C18.0441 20.2236 18.4591 20.0312 18.773 19.7173L19.016 19.4743C19.664 18.8263 19.749 17.8043 19.216 17.0583L18.892 16.6053C18.8124 16.4899 18.7645 16.3556 18.7533 16.2159C18.742 16.0761 18.7678 15.9359 18.828 15.8093C18.899 15.6523 18.965 15.4933 19.026 15.3313C19.126 15.0643 19.353 14.8613 19.634 14.8143L20.184 14.7233C20.6218 14.6502 21.0194 14.4241 21.3061 14.0854C21.5929 13.7466 21.7502 13.3171 21.75 12.8733V12.5293C21.75 11.6133 21.087 10.8303 20.183 10.6793L19.634 10.5883C19.4962 10.5631 19.3675 10.502 19.2607 10.4113C19.154 10.3205 19.073 10.2033 19.026 10.0713C18.9655 9.90973 18.8995 9.75031 18.828 9.59329C18.7678 9.46668 18.742 9.32645 18.7533 9.18671C18.7645 9.04697 18.8124 8.91266 18.892 8.79729L19.216 8.34429C19.4741 7.98309 19.5956 7.54203 19.559 7.09962C19.5224 6.65721 19.3299 6.24215 19.016 5.92829L18.773 5.68529C18.4591 5.37135 18.0441 5.17894 17.6017 5.14232C17.1593 5.1057 16.7182 5.22723 16.357 5.48529L15.904 5.80929C15.7886 5.88894 15.6543 5.93679 15.5146 5.94803C15.3748 5.95926 15.2346 5.93349 15.108 5.87329C14.951 5.80179 14.7916 5.73575 14.63 5.67529C14.498 5.62825 14.3808 5.5473 14.29 5.44057C14.1993 5.33384 14.1382 5.2051 14.113 5.06729L14.022 4.51729C13.9489 4.07954 13.7228 3.68193 13.3841 3.39518C13.0453 3.10843 12.6158 2.95114 12.172 2.95129H11.828ZM12 16.4513C12.9946 16.4513 13.9484 16.0562 14.6517 15.3529C15.3549 14.6497 15.75 13.6959 15.75 12.7013C15.75 11.7067 15.3549 10.7529 14.6517 10.0496C13.9484 9.34638 12.9946 8.95129 12 8.95129C11.0054 8.95129 10.0516 9.34638 9.34835 10.0496C8.64509 10.7529 8.25 11.7067 8.25 12.7013C8.25 13.6959 8.64509 14.6497 9.34835 15.3529C10.0516 16.0562 11.0054 16.4513 12 16.4513Z" fill="#8584AD"/>
</svg>
