<svg width="24" height="25" viewBox="0 0 24 25" fill="none" xmlns="http://www.w3.org/2000/svg">
<path fill-rule="evenodd" clip-rule="evenodd" d="M2.25 13.8766C2.25 11.6886 3.11919 9.59013 4.66637 8.04296C6.21354 6.49578 8.31196 5.62659 10.5 5.62659C10.6989 5.62659 10.8897 5.7056 11.0303 5.84626C11.171 5.98691 11.25 6.17767 11.25 6.37659V13.1266H18C18.1989 13.1266 18.3897 13.2056 18.5303 13.3463C18.671 13.4869 18.75 13.6777 18.75 13.8766C18.75 16.0646 17.8808 18.163 16.3336 19.7102C14.7865 21.2574 12.688 22.1266 10.5 22.1266C8.31196 22.1266 6.21354 21.2574 4.66637 19.7102C3.11919 18.163 2.25 16.0646 2.25 13.8766Z" fill="#263959"/>
<path fill-rule="evenodd" clip-rule="evenodd" d="M12.75 3.37659C12.75 3.17767 12.829 2.98691 12.9697 2.84626C13.1103 2.7056 13.3011 2.62659 13.5 2.62659C15.688 2.62659 17.7865 3.49578 19.3336 5.04296C20.8808 6.59013 21.75 8.68855 21.75 10.8766C21.75 11.0755 21.671 11.2663 21.5303 11.4069C21.3897 11.5476 21.1989 11.6266 21 11.6266H13.5C13.3011 11.6266 13.1103 11.5476 12.9697 11.4069C12.829 11.2663 12.75 11.0755 12.75 10.8766V3.37659Z" fill="#263959"/>
</svg>
