<svg width="19" height="19" viewBox="0 0 19 19" fill="none" xmlns="http://www.w3.org/2000/svg">
<path d="M1.73827 8.07044C1.73827 8.07044 9.69929 4.11918 12.4603 2.72784C13.5187 2.17127 17.108 0.390354 17.108 0.390354C17.108 0.390354 18.7647 -0.388807 18.6266 1.50349C18.5806 2.28265 18.2124 5.00956 17.8444 7.95922C17.2922 12.1331 16.6939 16.6967 16.6939 16.6967C16.6939 16.6967 16.6019 17.9766 15.8196 18.1994C15.0373 18.422 13.7488 17.4204 13.5188 17.1976C13.3347 17.0308 10.0674 14.5263 8.87109 13.302C8.54895 12.9682 8.18084 12.3002 8.91707 11.5212C10.5737 9.68468 12.5525 7.40296 13.7488 5.95601C14.301 5.28807 14.8532 3.7299 12.5524 5.62204C9.28519 8.34895 6.06397 10.909 6.06397 10.909C6.06397 10.909 5.3276 11.4656 3.94723 10.9646C2.56672 10.4638 0.956048 9.7959 0.956048 9.7959C0.956048 9.7959 -0.148433 8.96082 1.73827 8.07044Z" fill="#AA84CA"/>
</svg>
